<svg width="72" height="72" viewBox="0 0 72 72" fill="none" xmlns="http://www.w3.org/2000/svg" role="img" aria-labelledby="title desc">
  <title id="title">欢雨flower 花枝标志</title>
  <desc id="desc">一朵珊瑚色花朵与酒红色枝叶组成的欢雨flower标志</desc>
  <circle cx="36" cy="36" r="33" fill="#FBF7F2" stroke="#E8CFC6" stroke-width="1.5"/>
  <path d="M36.5 55.5C37.5 45.5 37.3 35.8 34.4 26.8" stroke="#4A2335" stroke-width="2" stroke-linecap="round"/>
  <path d="M37 46.5C43.3 43 49.2 42.4 54.5 44.6" stroke="#758774" stroke-width="2" stroke-linecap="round"/>
  <path d="M37.6 40.4C31.7 37.6 26.5 37.8 21.9 40.9" stroke="#758774" stroke-width="2" stroke-linecap="round"/>
  <path d="M37.5 50.2C42 48.8 45.6 49.2 48.7 51.2C44.5 53.7 40.8 53.4 37.5 50.2Z" fill="#A5B19D"/>
  <path d="M35.7 43.1C31.7 41.9 28.4 42.6 25.6 45.1C29.2 46.3 32.7 45.6 35.7 43.1Z" fill="#A5B19D"/>
  <path d="M34.7 27.8C29.6 27.4 26.2 24.8 24.5 20.2C29.4 19.9 33.1 22.3 34.7 27.8Z" fill="#D9644F"/>
  <path d="M35 28.1C34.2 22.8 36.2 18.8 40.8 16.1C42.2 21.1 40.3 25.2 35 28.1Z" fill="#E58A73"/>
  <path d="M34.9 27.7C29.8 25.7 26.9 21.9 26.2 16.3C31.7 17 35 20.7 34.9 27.7Z" fill="#C95449"/>
  <path d="M35 27.9C39.8 24.9 44.5 25 49 28.1C45.1 31.3 40.3 31.2 35 27.9Z" fill="#D9644F"/>
  <path d="M35.2 27.5C37.4 22.9 41.2 20.5 46.6 20.3C45.9 25.1 42.1 28 35.2 27.5Z" fill="#F0AD98"/>
  <circle cx="35" cy="27.8" r="3.6" fill="#D6AA63"/>
  <path d="M51.5 44.2C54.2 40.7 57.6 39.6 61.6 40.7C59.8 44.5 56.4 45.7 51.5 44.2Z" fill="#758774"/>
</svg>
