<svg width="128" height="128" viewBox="0 0 128 128" fill="none" xmlns="http://www.w3.org/2000/svg" role="img" aria-labelledby="emptyTitle">
  <title id="emptyTitle">暂无花礼</title>
  <circle cx="64" cy="64" r="52" fill="#F2D7CE"/>
  <path d="M64 93C65.2 78.8 65 65.5 61 52.8" stroke="#4A2335" stroke-width="3" stroke-linecap="round"/>
  <path d="M65 76C73 71.4 80.2 71.2 86.6 75.2C80.6 80.1 73.4 80.4 65 76Z" fill="#758774"/>
  <path d="M62.2 68.8C54.8 66.9 48.6 68.3 43.7 73.1C50.3 75 56.3 73.6 62.2 68.8Z" fill="#91A18E"/>
  <path d="M61.4 53.8C54 53.1 49 49.2 46.8 42.6C54 42.2 59.2 46 61.4 53.8Z" fill="#D9644F"/>
  <path d="M61.8 54C60.8 46.3 63.9 40.6 70.4 36.8C72.4 44.1 69.2 49.9 61.8 54Z" fill="#E58A73"/>
  <path d="M61.6 53.8C54.4 51 49.9 45.8 49 38C56.8 39 61.7 44.2 61.6 53.8Z" fill="#C95449"/>
  <path d="M61.9 54.1C68.8 49.8 75.5 50.1 81.8 54.6C76.1 59.2 69.3 59 61.9 54.1Z" fill="#D9644F"/>
  <circle cx="61.7" cy="53.9" r="4.6" fill="#D6AA63"/>
</svg>
