<svg width="40" height="40" viewBox="0 0 40 40" xmlns="http://www.w3.org/2000/svg">
  <defs>
    <linearGradient id="logoGradient" x1="0%" y1="0%" x2="100%" y2="100%">
      <stop offset="0%" style="stop-color:#ec4899;stop-opacity:1" />
      <stop offset="100%" style="stop-color:#f472b6;stop-opacity:1" />
    </linearGradient>
  </defs>
  <circle cx="20" cy="20" r="18" fill="url(#logoGradient)"/>
  <path d="M20 8 C16 8, 12 12, 12 18 C12 24, 16 28, 20 28 C24 28, 28 24, 28 18 C28 12, 24 8, 20 8 Z M20 10 C23 10, 26 13, 26 18 C26 23, 23 26, 20 26 C17 26, 14 23, 14 18 C14 13, 17 10, 20 10 Z" fill="white" opacity="0.9"/>
  <circle cx="20" cy="18" r="3" fill="white"/>
  <path d="M15 25 Q20 22, 25 25" stroke="white" stroke-width="1.5" fill="none" opacity="0.8"/>
</svg>