<?xml version="1.0" standalone="no"?><!DOCTYPE svg PUBLIC "-//W3C//DTD SVG 1.1//EN" "http://www.w3.org/Graphics/SVG/1.1/DTD/svg11.dtd"><svg t="1764752068699" class="icon" viewBox="0 0 1024 1024" version="1.1" xmlns="http://www.w3.org/2000/svg" p-id="11271" xmlns:xlink="http://www.w3.org/1999/xlink" width="200" height="200"><path d="M476.58 353.75m-146.15 0a146.15 146.15 0 1 0 292.3 0 146.15 146.15 0 1 0-292.3 0Z" fill="#FFFFFF" p-id="11272"></path><path d="M65.18 512c0 247 200.21 447.17 447.18 447.17S959.52 758.93 959.52 512 759.32 64.79 512.36 64.79 65.18 265 65.18 512z m0 0" fill="#64B9FF" p-id="11273"></path><path d="M476.57 499.9a146.15 146.15 0 1 0-146-146.14 145.47 145.47 0 0 0 146 146.14zM639.09 710.65A32.08 32.08 0 1 0 607 678.57a32.12 32.12 0 0 0 32.09 32.08zM497.26 788.45l-24.42-40.53a42.69 42.69 0 0 1 0.62-47.38l0.75-1.09 0.85-1a31 31 0 0 0 0-40l-0.85-1-0.75-1.08a42.71 42.71 0 0 1-0.62-47.39l24.42-40.53a42.4 42.4 0 0 1 43.63-20.71l0.35 0.06a31 31 0 0 0 34.46-19.6 40.08 40.08 0 0 1 3.67-7.46 168.51 168.51 0 0 0-21.08-1.32h-151A166.34 166.34 0 0 0 241 685.76v48.47a57.67 57.67 0 0 0 57.66 57.66h200.83c-0.79-1.11-1.55-2.25-2.23-3.44z" fill="#FFFFFF" p-id="11274"></path><path d="M767 678.57a59.06 59.06 0 0 1 13-36.89 14.47 14.47 0 0 0 0-16.21l-25-41.63a15.72 15.72 0 0 0-15.46-8.23A59.07 59.07 0 0 1 677.73 538a14.46 14.46 0 0 0-13.73-9h-44.11c-10.47 0-15.95 3.49-17.95 9a59.08 59.08 0 0 1-65.56 37.39 14.47 14.47 0 0 0-15 7.23L496.49 624a14.49 14.49 0 0 0 0 16.46 59.06 59.06 0 0 1 0 76 14.49 14.49 0 0 0 0 16.46l24.93 41.38a14.47 14.47 0 0 0 15 7.23 59.08 59.08 0 0 1 65.56 37.39 14.45 14.45 0 0 0 13.71 9h43.88c10.47 0 16-3.49 18-9a59.08 59.08 0 0 1 63.82-37.64 15.69 15.69 0 0 0 15.45-8.23l24.93-41.63a14.46 14.46 0 0 0 0-16.2A59.14 59.14 0 0 1 767 678.57z m-127.91 60.08a60.08 60.08 0 1 1 60.08-60.08 60.08 60.08 0 0 1-60.08 60.08z m0 0" fill="#FFFFFF" p-id="11275"></path></svg>